<svg xmlns="http://www.w3.org/2000/svg" viewBox="0 0 783 389" role="img">
<defs><marker id="arr" viewBox="0 0 10 10" refX="8.5" refY="5" markerWidth="7" markerHeight="7" orient="auto-start-reverse"><path d="M 0 0 L 10 5 L 0 10 z" fill="#1e1e1c"/></marker></defs>
<path d="M 202.3 61 C 255.8 61, 255.8 170.2, 306.4 170.2" fill="none" stroke="#1e1e1c" stroke-width="1.8" marker-end="url(#arr)"/>
<path d="M 219.4 166.3 C 264.4 166.3, 264.4 194.8, 306.4 194.8" fill="none" stroke="#1e1e1c" stroke-width="1.8" marker-end="url(#arr)"/>
<path d="M 219.4 198.7 C 279.4 198.7, 291.3 83.5, 399.3 83.5 C 507.2 83.5, 519.2 164, 576.2 164" fill="none" stroke="#1e1e1c" stroke-width="1.8" marker-end="url(#arr)"/>
<path d="M 202.3 304 C 262.3 304, 280.7 263.5, 390.7 263.5 C 500.7 263.5, 519.2 201, 576.2 201" fill="none" stroke="#1e1e1c" stroke-width="1.8" marker-end="url(#arr)"/>
<path d="M 489.2 182.5 C 513.2 182.5, 555.2 182.5, 576.2 182.5" fill="none" stroke="#1e1e1c" stroke-width="1.8" marker-end="url(#arr)"/>
<rect x="41.1" y="24" width="161.2" height="74" rx="10" fill="#ffffff" stroke="#1e1e1c" stroke-width="1.5"/>
<text stroke="none" x="121.7" y="54.6" text-anchor="middle" font-family="Inter, Arial, sans-serif" font-size="17" font-weight="700" fill="#1e1e1c">Axis source</text>
<text stroke="none" x="121.7" y="77.6" text-anchor="middle" font-family="Inter, Arial, sans-serif" font-size="14.5" fill="#44403a">fixed to X</text>
<rect x="24" y="134" width="195.4" height="97" rx="10" fill="#ffffff" stroke="#1e1e1c" stroke-width="1.5"/>
<text stroke="none" x="121.7" y="164.6" text-anchor="middle" font-family="Inter, Arial, sans-serif" font-size="17" font-weight="700" fill="#1e1e1c">Middle sources</text>
<text stroke="none" x="121.7" y="187.6" text-anchor="middle" font-family="Inter, Arial, sans-serif" font-size="14.5" fill="#44403a">m slots</text>
<text stroke="none" x="121.7" y="210.6" text-anchor="middle" font-family="Inter, Arial, sans-serif" font-size="14.5" fill="#44403a">latent shocks</text>
<rect x="41.1" y="267" width="161.2" height="74" rx="10" fill="#ffffff" stroke="#1e1e1c" stroke-width="1.5"/>
<text stroke="none" x="121.7" y="297.6" text-anchor="middle" font-family="Inter, Arial, sans-serif" font-size="17" font-weight="700" fill="#1e1e1c">Axis source</text>
<text stroke="none" x="121.7" y="320.6" text-anchor="middle" font-family="Inter, Arial, sans-serif" font-size="14.5" fill="#44403a">fixed to Y</text>
<rect x="309.4" y="145.5" width="179.8" height="74" rx="10" fill="#e7f0ef" stroke="#1e1e1c" stroke-width="1.5"/>
<text stroke="none" x="399.3" y="176.1" text-anchor="middle" font-family="Inter, Arial, sans-serif" font-size="17" font-weight="700" fill="#1e1e1c">X</text>
<text stroke="none" x="399.3" y="199.1" text-anchor="middle" font-family="Inter, Arial, sans-serif" font-size="14.5" fill="#44403a">observed outcome</text>
<rect x="579.2" y="145.5" width="179.8" height="74" rx="10" fill="#f6efdb" stroke="#1e1e1c" stroke-width="1.5"/>
<text stroke="none" x="669.1" y="176.1" text-anchor="middle" font-family="Inter, Arial, sans-serif" font-size="17" font-weight="700" fill="#1e1e1c">Y</text>
<text stroke="none" x="669.1" y="199.1" text-anchor="middle" font-family="Inter, Arial, sans-serif" font-size="14.5" fill="#44403a">observed outcome</text>
</svg>
