<svg xmlns="http://www.w3.org/2000/svg" viewBox="0 0 1824 380" role="img">
<defs><marker id="arr" viewBox="0 0 10 10" refX="8.5" refY="5" markerWidth="7" markerHeight="7" orient="auto-start-reverse"><path d="M 0 0 L 10 5 L 0 10 z" fill="#1e1e1c"/></marker></defs>
<path d="M 239.8 139 C 284.8 139, 284.8 139, 326.8 139" fill="none" stroke="#1e1e1c" stroke-width="2" marker-end="url(#arr)"/>
<path d="M 239.8 120.5 C 289.8 120.5, 461.5 288, 581.5 288 C 701.5 288, 873.3 84.8, 920.3 84.8" fill="none" stroke="#1e1e1c" stroke-width="2" marker-end="url(#arr)"/>
<path d="M 239.8 157.5 C 289.8 157.5, 645.9 322, 765.9 322 C 885.9 322, 1242 122.8, 1289 122.8" fill="none" stroke="#1e1e1c" stroke-width="2" marker-end="url(#arr)"/>
<path d="M 525.2 122.8 C 570.2 122.8, 570.2 72.5, 612.2 72.5" fill="none" stroke="#1e1e1c" stroke-width="2" marker-end="url(#arr)"/>
<path d="M 525.2 155.2 C 570.2 155.2, 570.2 205.5, 612.2 205.5" fill="none" stroke="#1e1e1c" stroke-width="2" marker-end="url(#arr)"/>
<path d="M 833.3 72.5 C 878.3 72.5, 878.3 60.2, 920.3 60.2" fill="none" stroke="#1e1e1c" stroke-width="2" marker-end="url(#arr)"/>
<path d="M 833.3 205.5 C 899.1 205.5, 899.1 194, 962 194" fill="none" stroke="#1e1e1c" stroke-width="2" marker-end="url(#arr)"/>
<path d="M 1160.3 194 C 1226.2 194, 1226.2 155.2, 1289 155.2" fill="none" stroke="#1e1e1c" stroke-width="2" marker-end="url(#arr)"/>
<path d="M 1202 72.5 C 1252 72.5, 1286.8 356, 1406.8 356 C 1526.8 356, 1561.5 122.8, 1608.5 122.8" fill="none" stroke="#1e1e1c" stroke-width="2" marker-end="url(#arr)"/>
<path d="M 1521.5 139 C 1566.5 139, 1566.5 155.2, 1608.5 155.2" fill="none" stroke="#1e1e1c" stroke-width="2" marker-end="url(#arr)"/>
<rect x="24" y="102" width="215.8" height="74" rx="8" fill="#ffffff" stroke="#1e1e1c" stroke-width="2"/>
<text stroke="none" x="131.9" y="132.6" text-anchor="middle" font-family="Inter, Arial, sans-serif" font-size="17" font-weight="700" fill="#1e1e1c">Split sample</text>
<text stroke="none" x="131.9" y="155.6" text-anchor="middle" font-family="Inter, Arial, sans-serif" font-size="14.5" fill="#44403a">pilot and estimation</text>
<rect x="329.8" y="90.5" width="195.4" height="97" rx="8" fill="#e7f0ef" stroke="#1e1e1c" stroke-width="2"/>
<text stroke="none" x="427.5" y="121.1" text-anchor="middle" font-family="Inter, Arial, sans-serif" font-size="17" font-weight="700" fill="#1e1e1c">Pilot classify</text>
<text stroke="none" x="427.5" y="144.1" text-anchor="middle" font-family="Inter, Arial, sans-serif" font-size="14.5" fill="#44403a">counts above</text>
<text stroke="none" x="427.5" y="167.1" text-anchor="middle" font-family="Inter, Arial, sans-serif" font-size="14.5" fill="#44403a">log threshold</text>
<rect x="615.2" y="24" width="218.1" height="97" rx="8" fill="#f6efdb" stroke="#1e1e1c" stroke-width="2"/>
<text stroke="none" x="724.2" y="54.6" text-anchor="middle" font-family="Inter, Arial, sans-serif" font-size="17" font-weight="700" fill="#1e1e1c">Heavy categories</text>
<text stroke="none" x="724.2" y="77.6" text-anchor="middle" font-family="Inter, Arial, sans-serif" font-size="14.5" fill="#44403a">pilot-certified</text>
<text stroke="none" x="724.2" y="100.6" text-anchor="middle" font-family="Inter, Arial, sans-serif" font-size="14.5" fill="#44403a">stable ratios</text>
<rect x="923.3" y="35.5" width="278.7" height="74" rx="8" fill="#ffffff" stroke="#1e1e1c" stroke-width="2"/>
<text stroke="none" x="1062.7" y="66.1" text-anchor="middle" font-family="Inter, Arial, sans-serif" font-size="17" font-weight="700" fill="#1e1e1c">Ratio estimate</text>
<text stroke="none" x="1062.7" y="89.1" text-anchor="middle" font-family="Inter, Arial, sans-serif" font-size="14.5" fill="#44403a">empirical treatment-control</text>
<rect x="615.2" y="157" width="218.1" height="97" rx="8" fill="#f6efdb" stroke="#1e1e1c" stroke-width="2"/>
<text stroke="none" x="724.2" y="187.6" text-anchor="middle" font-family="Inter, Arial, sans-serif" font-size="17" font-weight="700" fill="#1e1e1c">Light categories</text>
<text stroke="none" x="724.2" y="210.6" text-anchor="middle" font-family="Inter, Arial, sans-serif" font-size="14.5" fill="#44403a">too sparse</text>
<text stroke="none" x="724.2" y="233.6" text-anchor="middle" font-family="Inter, Arial, sans-serif" font-size="14.5" fill="#44403a">direct ratios</text>
<rect x="965" y="145.5" width="195.4" height="97" rx="8" fill="#ffffff" stroke="#1e1e1c" stroke-width="2"/>
<text stroke="none" x="1062.7" y="176.1" text-anchor="middle" font-family="Inter, Arial, sans-serif" font-size="17" font-weight="700" fill="#1e1e1c">Chebyshev poly</text>
<text stroke="none" x="1062.7" y="199.1" text-anchor="middle" font-family="Inter, Arial, sans-serif" font-size="14.5" fill="#44403a">reciprocal ratio</text>
<text stroke="none" x="1062.7" y="222.1" text-anchor="middle" font-family="Inter, Arial, sans-serif" font-size="14.5" fill="#44403a">degree M(n)</text>
<rect x="1292" y="90.5" width="229.5" height="97" rx="8" fill="#e7f0ef" stroke="#1e1e1c" stroke-width="2"/>
<text stroke="none" x="1406.8" y="121.1" text-anchor="middle" font-family="Inter, Arial, sans-serif" font-size="17" font-weight="700" fill="#1e1e1c">Factorial moments</text>
<text stroke="none" x="1406.8" y="144.1" text-anchor="middle" font-family="Inter, Arial, sans-serif" font-size="14.5" fill="#44403a">monomials to</text>
<text stroke="none" x="1406.8" y="167.1" text-anchor="middle" font-family="Inter, Arial, sans-serif" font-size="14.5" fill="#44403a">count statistic</text>
<rect x="1611.5" y="90.5" width="188.8" height="97" rx="8" fill="#f6efdb" stroke="#1e1e1c" stroke-width="2"/>
<text stroke="none" x="1706" y="121.1" text-anchor="middle" font-family="Inter, Arial, sans-serif" font-size="17" font-weight="700" fill="#1e1e1c">Hybrid τ̂ₙ</text>
<text stroke="none" x="1706" y="144.1" text-anchor="middle" font-family="Inter, Arial, sans-serif" font-size="14.5" fill="#44403a">add contributions</text>
<text stroke="none" x="1706" y="167.1" text-anchor="middle" font-family="Inter, Arial, sans-serif" font-size="14.5" fill="#44403a">clip ATE range</text>
</svg>
