<svg xmlns="http://www.w3.org/2000/svg" viewBox="0 -14 1824 330" role="img">
<defs><marker id="arr" viewBox="0 0 10 10" refX="8.5" refY="5" markerWidth="7" markerHeight="7" orient="auto-start-reverse"><path d="M 0 0 L 10 5 L 0 10 z" fill="#1e1e1c"/></marker></defs>
<path d="M 239.8 139 C 263.8 139, 305.8 139, 326.8 139" fill="none" stroke="#1e1e1c" stroke-width="1.8" marker-end="url(#arr)"/>
<path d="M 239.8 120.5 L 253.8 120.5 Q 265.8 120.5, 265.8 108.5 L 265.8 10 Q 265.8 -2, 277.8 -2 L 885.3 -2 Q 897.3 -2, 897.3 10 L 897.3 73.3 Q 897.3 84.8, 908.8 84.8 L 920.3 84.8" fill="none" stroke="#1e1e1c" stroke-width="1.8" marker-end="url(#arr)"/>
<path d="M 239.8 157.5 L 253.8 157.5 Q 265.8 157.5, 265.8 169.5 L 265.8 268 Q 265.8 280, 277.8 280 L 1254 280 Q 1266 280, 1266 268 L 1266 134.3 Q 1266 122.8, 1277.5 122.8 L 1289 122.8" fill="none" stroke="#1e1e1c" stroke-width="1.8" marker-end="url(#arr)"/>
<path d="M 525.2 122.8 C 570.2 122.8, 570.2 72.5, 612.2 72.5" fill="none" stroke="#1e1e1c" stroke-width="1.8" marker-end="url(#arr)"/>
<path d="M 525.2 155.2 C 570.2 155.2, 570.2 205.5, 612.2 205.5" fill="none" stroke="#1e1e1c" stroke-width="1.8" marker-end="url(#arr)"/>
<path d="M 833.3 72.5 C 867.2 72.5, 889.4 60.2, 920.3 60.2" fill="none" stroke="#1e1e1c" stroke-width="1.8" marker-end="url(#arr)"/>
<path d="M 833.3 205.5 C 866.5 205.5, 931.8 194, 962 194" fill="none" stroke="#1e1e1c" stroke-width="1.8" marker-end="url(#arr)"/>
<path d="M 1160.3 194 C 1215.4 194, 1237 155.2, 1289 155.2" fill="none" stroke="#1e1e1c" stroke-width="1.8" marker-end="url(#arr)"/>
<path d="M 1202 72.5 L 1224 72.5 Q 1228 72.5, 1228 68.5 L 1228 68.5 Q 1228 64.5, 1232 64.5 L 1573.5 64.5 Q 1585.5 64.5, 1585.5 76.5 L 1585.5 111.3 Q 1585.5 122.8, 1597 122.8 L 1608.5 122.8" fill="none" stroke="#1e1e1c" stroke-width="1.8" marker-end="url(#arr)"/>
<path d="M 1521.5 139 C 1558.5 139, 1574.6 155.2, 1608.5 155.2" fill="none" stroke="#1e1e1c" stroke-width="1.8" marker-end="url(#arr)"/>
<rect x="24" y="102" width="215.8" height="74" rx="10" fill="#ffffff" stroke="#1e1e1c" stroke-width="1.5"/>
<text stroke="none" x="131.9" y="132.6" text-anchor="middle" font-family="Inter, Arial, sans-serif" font-size="17" font-weight="700" fill="#1e1e1c">Split sample</text>
<text stroke="none" x="131.9" y="155.6" text-anchor="middle" font-family="Inter, Arial, sans-serif" font-size="14.5" fill="#44403a">pilot and estimation</text>
<rect x="329.8" y="90.5" width="195.4" height="97" rx="10" fill="#e7f0ef" stroke="#1e1e1c" stroke-width="1.5"/>
<text stroke="none" x="427.5" y="121.1" text-anchor="middle" font-family="Inter, Arial, sans-serif" font-size="17" font-weight="700" fill="#1e1e1c">Pilot classify</text>
<text stroke="none" x="427.5" y="144.1" text-anchor="middle" font-family="Inter, Arial, sans-serif" font-size="14.5" fill="#44403a">counts above</text>
<text stroke="none" x="427.5" y="167.1" text-anchor="middle" font-family="Inter, Arial, sans-serif" font-size="14.5" fill="#44403a">log threshold</text>
<rect x="615.2" y="24" width="218.1" height="97" rx="10" fill="#f6efdb" stroke="#1e1e1c" stroke-width="1.5"/>
<text stroke="none" x="724.2" y="54.6" text-anchor="middle" font-family="Inter, Arial, sans-serif" font-size="17" font-weight="700" fill="#1e1e1c">Heavy categories</text>
<text stroke="none" x="724.2" y="77.6" text-anchor="middle" font-family="Inter, Arial, sans-serif" font-size="14.5" fill="#44403a">pilot-certified</text>
<text stroke="none" x="724.2" y="100.6" text-anchor="middle" font-family="Inter, Arial, sans-serif" font-size="14.5" fill="#44403a">stable ratios</text>
<rect x="923.3" y="35.5" width="278.7" height="74" rx="10" fill="#ffffff" stroke="#1e1e1c" stroke-width="1.5"/>
<text stroke="none" x="1062.7" y="66.1" text-anchor="middle" font-family="Inter, Arial, sans-serif" font-size="17" font-weight="700" fill="#1e1e1c">Ratio estimate</text>
<text stroke="none" x="1062.7" y="89.1" text-anchor="middle" font-family="Inter, Arial, sans-serif" font-size="14.5" fill="#44403a">empirical treatment-control</text>
<rect x="615.2" y="157" width="218.1" height="97" rx="10" fill="#f6efdb" stroke="#1e1e1c" stroke-width="1.5"/>
<text stroke="none" x="724.2" y="187.6" text-anchor="middle" font-family="Inter, Arial, sans-serif" font-size="17" font-weight="700" fill="#1e1e1c">Light categories</text>
<text stroke="none" x="724.2" y="210.6" text-anchor="middle" font-family="Inter, Arial, sans-serif" font-size="14.5" fill="#44403a">too sparse</text>
<text stroke="none" x="724.2" y="233.6" text-anchor="middle" font-family="Inter, Arial, sans-serif" font-size="14.5" fill="#44403a">direct ratios</text>
<rect x="965" y="145.5" width="195.4" height="97" rx="10" fill="#ffffff" stroke="#1e1e1c" stroke-width="1.5"/>
<text stroke="none" x="1062.7" y="176.1" text-anchor="middle" font-family="Inter, Arial, sans-serif" font-size="17" font-weight="700" fill="#1e1e1c">Chebyshev poly</text>
<text stroke="none" x="1062.7" y="199.1" text-anchor="middle" font-family="Inter, Arial, sans-serif" font-size="14.5" fill="#44403a">reciprocal ratio</text>
<text stroke="none" x="1062.7" y="222.1" text-anchor="middle" font-family="Inter, Arial, sans-serif" font-size="14.5" fill="#44403a">degree M(n)</text>
<rect x="1292" y="90.5" width="229.5" height="97" rx="10" fill="#e7f0ef" stroke="#1e1e1c" stroke-width="1.5"/>
<text stroke="none" x="1406.8" y="121.1" text-anchor="middle" font-family="Inter, Arial, sans-serif" font-size="17" font-weight="700" fill="#1e1e1c">Factorial moments</text>
<text stroke="none" x="1406.8" y="144.1" text-anchor="middle" font-family="Inter, Arial, sans-serif" font-size="14.5" fill="#44403a">monomials to</text>
<text stroke="none" x="1406.8" y="167.1" text-anchor="middle" font-family="Inter, Arial, sans-serif" font-size="14.5" fill="#44403a">count statistic</text>
<rect x="1611.5" y="90.5" width="188.8" height="97" rx="10" fill="#f6efdb" stroke="#1e1e1c" stroke-width="1.5"/>
<text stroke="none" x="1706" y="121.1" text-anchor="middle" font-family="Inter, Arial, sans-serif" font-size="17" font-weight="700" fill="#1e1e1c">Hybrid τ̂ₙ</text>
<text stroke="none" x="1706" y="144.1" text-anchor="middle" font-family="Inter, Arial, sans-serif" font-size="14.5" fill="#44403a">add contributions</text>
<text stroke="none" x="1706" y="167.1" text-anchor="middle" font-family="Inter, Arial, sans-serif" font-size="14.5" fill="#44403a">clip ATE range</text>
</svg>
