<svg xmlns="http://www.w3.org/2000/svg" viewBox="0 0 1392 522" role="img">
<defs><marker id="arr" viewBox="0 0 10 10" refX="8.5" refY="5" markerWidth="7" markerHeight="7" orient="auto-start-reverse"><path d="M 0 0 L 10 5 L 0 10 z" fill="#1e1e1c"/></marker></defs>
<path d="M 202.3 72.5 C 250.1 72.5, 250.1 232.8, 295 232.8" fill="none" stroke="#1e1e1c" stroke-width="1.8" marker-end="url(#arr)"/>
<path d="M 202.3 194 C 250.1 194, 250.1 265.2, 295 265.2" fill="none" stroke="#1e1e1c" stroke-width="1.8" marker-end="url(#arr)"/>
<path d="M 208 315.5 L 230 315.5 Q 234 315.5, 234 319.5 L 234 319.5 Q 234 323.5, 238 323.5 L 511.2 323.5 Q 523.2 323.5, 523.2 311.5 L 523.2 276.7 Q 523.2 265.2, 534.7 265.2 L 546.2 265.2" fill="none" stroke="#1e1e1c" stroke-width="1.8" marker-end="url(#arr)"/>
<path d="M 459.2 249 C 496.1 249, 512.3 232.8, 546.2 232.8" fill="none" stroke="#1e1e1c" stroke-width="1.8" marker-end="url(#arr)"/>
<path d="M 774 232.8 C 810.9 232.8, 827.1 249, 861 249" fill="none" stroke="#1e1e1c" stroke-width="1.8" marker-end="url(#arr)"/>
<path d="M 774 265.2 L 788 265.2 Q 800 265.2, 800 253.2 L 800 186.5 Q 800 174.5, 812 174.5 L 1113.8 174.5 Q 1125.8 174.5, 1125.8 186.5 L 1125.8 213.3 Q 1125.8 224.8, 1137.3 224.8 L 1148.8 224.8" fill="none" stroke="#1e1e1c" stroke-width="1.8" marker-end="url(#arr)"/>
<path d="M 1061.8 249 C 1085.8 249, 1127.8 249, 1148.8 249" fill="none" stroke="#1e1e1c" stroke-width="1.8" marker-end="url(#arr)"/>
<path d="M 190.9 437 L 222 437 Q 234 437, 234 425 L 234 353.5 Q 234 341.5, 246 341.5 L 1113.8 341.5 Q 1125.8 341.5, 1125.8 329.5 L 1125.8 284.8 Q 1125.8 273.3, 1137.3 273.3 L 1148.8 273.3" fill="none" stroke="#1e1e1c" stroke-width="1.8" marker-end="url(#arr)"/>
<rect x="29.7" y="24" width="172.6" height="97" rx="10" fill="#ffffff" stroke="#1e1e1c" stroke-width="1.5"/>
<text stroke="none" x="116" y="54.6" text-anchor="middle" font-family="Inter, Arial, sans-serif" font-size="17" font-weight="700" fill="#1e1e1c">Four cohorts</text>
<text stroke="none" x="116" y="77.6" text-anchor="middle" font-family="Inter, Arial, sans-serif" font-size="14.5" fill="#44403a">2, 3, 4</text>
<text stroke="none" x="116" y="100.6" text-anchor="middle" font-family="Inter, Arial, sans-serif" font-size="14.5" fill="#44403a">never-treated</text>
<rect x="29.7" y="157" width="172.6" height="74" rx="10" fill="#ffffff" stroke="#1e1e1c" stroke-width="1.5"/>
<text stroke="none" x="116" y="187.6" text-anchor="middle" font-family="Inter, Arial, sans-serif" font-size="17" font-weight="700" fill="#1e1e1c">Four periods</text>
<text stroke="none" x="116" y="210.6" text-anchor="middle" font-family="Inter, Arial, sans-serif" font-size="14.5" fill="#44403a">periods 1–4</text>
<rect x="298" y="200.5" width="161.2" height="97" rx="10" fill="#e7f0ef" stroke="#1e1e1c" stroke-width="1.5"/>
<text stroke="none" x="378.6" y="231.1" text-anchor="middle" font-family="Inter, Arial, sans-serif" font-size="17" font-weight="700" fill="#1e1e1c">Cohort rows</text>
<text stroke="none" x="378.6" y="254.1" text-anchor="middle" font-family="Inter, Arial, sans-serif" font-size="14.5" fill="#44403a">four rows</text>
<text stroke="none" x="378.6" y="277.1" text-anchor="middle" font-family="Inter, Arial, sans-serif" font-size="14.5" fill="#44403a">four periods</text>
<rect x="24" y="267" width="184" height="97" rx="10" fill="#ffffff" stroke="#1e1e1c" stroke-width="1.5"/>
<text stroke="none" x="116" y="297.6" text-anchor="middle" font-family="Inter, Arial, sans-serif" font-size="17" font-weight="700" fill="#1e1e1c">First treated</text>
<text stroke="none" x="116" y="320.6" text-anchor="middle" font-family="Inter, Arial, sans-serif" font-size="14.5" fill="#44403a">periods 2, 3, 4</text>
<text stroke="none" x="116" y="343.6" text-anchor="middle" font-family="Inter, Arial, sans-serif" font-size="14.5" fill="#44403a">never-treated</text>
<rect x="549.2" y="200.5" width="224.8" height="97" rx="10" fill="#f6efdb" stroke="#1e1e1c" stroke-width="1.5"/>
<text stroke="none" x="661.6" y="231.1" text-anchor="middle" font-family="Inter, Arial, sans-serif" font-size="17" font-weight="700" fill="#1e1e1c">Treated cells</text>
<text stroke="none" x="661.6" y="254.1" text-anchor="middle" font-family="Inter, Arial, sans-serif" font-size="14.5" fill="#44403a">shaded after adoption</text>
<text stroke="none" x="661.6" y="277.1" text-anchor="middle" font-family="Inter, Arial, sans-serif" font-size="14.5" fill="#44403a">positive effects</text>
<rect x="864" y="200.5" width="197.8" height="97" rx="10" fill="#ffffff" stroke="#1e1e1c" stroke-width="1.5"/>
<text stroke="none" x="962.9" y="231.1" text-anchor="middle" font-family="Inter, Arial, sans-serif" font-size="17" font-weight="700" fill="#1e1e1c">Late cell</text>
<text stroke="none" x="962.9" y="254.1" text-anchor="middle" font-family="Inter, Arial, sans-serif" font-size="14.5" fill="#44403a">cohort 2, period 4</text>
<text stroke="none" x="962.9" y="277.1" text-anchor="middle" font-family="Inter, Arial, sans-serif" font-size="14.5" fill="#44403a">largest effect</text>
<rect x="41.1" y="400" width="149.8" height="74" rx="10" fill="#ffffff" stroke="#1e1e1c" stroke-width="1.5"/>
<text stroke="none" x="116" y="430.6" text-anchor="middle" font-family="Inter, Arial, sans-serif" font-size="17" font-weight="700" fill="#1e1e1c">Flat means</text>
<text stroke="none" x="116" y="453.6" text-anchor="middle" font-family="Inter, Arial, sans-serif" font-size="14.5" fill="#44403a">equal shares</text>
<rect x="1151.8" y="200.5" width="215.8" height="97" rx="10" fill="#e7f0ef" stroke="#1e1e1c" stroke-width="1.5"/>
<text stroke="none" x="1259.7" y="231.1" text-anchor="middle" font-family="Inter, Arial, sans-serif" font-size="17" font-weight="700" fill="#1e1e1c">PPML sign</text>
<text stroke="none" x="1259.7" y="254.1" text-anchor="middle" font-family="Inter, Arial, sans-serif" font-size="14.5" fill="#44403a">pooled fixed effects</text>
<text stroke="none" x="1259.7" y="277.1" text-anchor="middle" font-family="Inter, Arial, sans-serif" font-size="14.5" fill="#44403a">treatment?</text>
</svg>
