<svg xmlns="http://www.w3.org/2000/svg" viewBox="0 0 1489 279" role="img">
<defs><marker id="arr" viewBox="0 0 10 10" refX="8.5" refY="5" markerWidth="7" markerHeight="7" orient="auto-start-reverse"><path d="M 0 0 L 10 5 L 0 10 z" fill="#1e1e1c"/></marker></defs>
<path d="M 248.8 111.3 C 285.7 111.3, 301.9 127.5, 335.8 127.5" fill="none" stroke="#1e1e1c" stroke-width="1.8" marker-end="url(#arr)"/>
<path d="M 248.8 143.7 C 308.8 143.7, 357.5 238, 467.5 238 C 577.5 238, 626.3 166.3, 683.3 166.3" fill="none" stroke="#1e1e1c" stroke-width="1.8" marker-end="url(#arr)"/>
<path d="M 590.6 111.3 C 635.6 111.3, 635.6 61, 677.6 61" fill="none" stroke="#1e1e1c" stroke-width="1.8" marker-end="url(#arr)"/>
<path d="M 590.6 143.7 C 638.4 143.7, 638.4 198.7, 683.3 198.7" fill="none" stroke="#1e1e1c" stroke-width="1.8" marker-end="url(#arr)"/>
<path d="M 887.4 61 C 932.4 61, 932.4 111.3, 974.4 111.3" fill="none" stroke="#1e1e1c" stroke-width="1.8" marker-end="url(#arr)"/>
<path d="M 881.6 182.5 C 929.5 182.5, 929.5 143.7, 974.4 143.7" fill="none" stroke="#1e1e1c" stroke-width="1.8" marker-end="url(#arr)"/>
<path d="M 1195.5 127.5 C 1219.5 127.5, 1261.5 127.5, 1282.5 127.5" fill="none" stroke="#1e1e1c" stroke-width="1.8" marker-end="url(#arr)"/>
<rect x="24" y="79" width="224.8" height="97" rx="10" fill="#ffffff" stroke="#1e1e1c" stroke-width="1.5"/>
<text stroke="none" x="136.4" y="109.6" text-anchor="middle" font-family="Inter, Arial, sans-serif" font-size="17" font-weight="700" fill="#1e1e1c">Treated means</text>
<text stroke="none" x="136.4" y="132.6" text-anchor="middle" font-family="Inter, Arial, sans-serif" font-size="14.5" fill="#44403a">heterogeneous effects</text>
<text stroke="none" x="136.4" y="155.6" text-anchor="middle" font-family="Inter, Arial, sans-serif" font-size="14.5" fill="#44403a">observed cells</text>
<rect x="338.8" y="79" width="251.8" height="97" rx="10" fill="#e7f0ef" stroke="#1e1e1c" stroke-width="1.5"/>
<text stroke="none" x="464.7" y="109.6" text-anchor="middle" font-family="Inter, Arial, sans-serif" font-size="17" font-weight="700" fill="#1e1e1c">PPML FE fit</text>
<text stroke="none" x="464.7" y="132.6" text-anchor="middle" font-family="Inter, Arial, sans-serif" font-size="14.5" fill="#44403a">balances observed/fitted</text>
<text stroke="none" x="464.7" y="155.6" text-anchor="middle" font-family="Inter, Arial, sans-serif" font-size="14.5" fill="#44403a">cohort/time margins</text>
<rect x="680.6" y="24" width="206.8" height="74" rx="10" fill="#f6efdb" stroke="#1e1e1c" stroke-width="1.5"/>
<text stroke="none" x="784" y="54.6" text-anchor="middle" font-family="Inter, Arial, sans-serif" font-size="17" font-weight="700" fill="#1e1e1c">Fitted weights</text>
<text stroke="none" x="784" y="77.6" text-anchor="middle" font-family="Inter, Arial, sans-serif" font-size="14.5" fill="#44403a">fitted mean weights</text>
<rect x="686.3" y="134" width="195.4" height="97" rx="10" fill="#f6efdb" stroke="#1e1e1c" stroke-width="1.5"/>
<text stroke="none" x="784" y="164.6" text-anchor="middle" font-family="Inter, Arial, sans-serif" font-size="17" font-weight="700" fill="#1e1e1c">Residual cells</text>
<text stroke="none" x="784" y="187.6" text-anchor="middle" font-family="Inter, Arial, sans-serif" font-size="14.5" fill="#44403a">treatment cells</text>
<text stroke="none" x="784" y="210.6" text-anchor="middle" font-family="Inter, Arial, sans-serif" font-size="14.5" fill="#44403a">residualized</text>
<rect x="977.4" y="79" width="218.1" height="97" rx="10" fill="#ffffff" stroke="#1e1e1c" stroke-width="1.5"/>
<text stroke="none" x="1086.4" y="109.6" text-anchor="middle" font-family="Inter, Arial, sans-serif" font-size="17" font-weight="700" fill="#1e1e1c">Score comparison</text>
<text stroke="none" x="1086.4" y="132.6" text-anchor="middle" font-family="Inter, Arial, sans-serif" font-size="14.5" fill="#44403a">fitted-weighted</text>
<text stroke="none" x="1086.4" y="155.6" text-anchor="middle" font-family="Inter, Arial, sans-serif" font-size="14.5" fill="#44403a">residual contrasts</text>
<rect x="1285.5" y="79" width="179.8" height="97" rx="10" fill="#e7f0ef" stroke="#1e1e1c" stroke-width="1.5"/>
<text stroke="none" x="1375.4" y="109.6" text-anchor="middle" font-family="Inter, Arial, sans-serif" font-size="17" font-weight="700" fill="#1e1e1c">Pooled sign</text>
<text stroke="none" x="1375.4" y="132.6" text-anchor="middle" font-family="Inter, Arial, sans-serif" font-size="14.5" fill="#44403a">coefficient sign</text>
<text stroke="none" x="1375.4" y="155.6" text-anchor="middle" font-family="Inter, Arial, sans-serif" font-size="14.5" fill="#44403a">may lower</text>
</svg>
