<svg xmlns="http://www.w3.org/2000/svg" viewBox="0 0 1258 366" role="img">
<defs><marker id="arr" viewBox="0 0 10 10" refX="8.5" refY="5" markerWidth="7" markerHeight="7" orient="auto-start-reverse"><path d="M 0 0 L 10 5 L 0 10 z" fill="#1e1e1c"/></marker></defs>
<path d="M 225.1 61 C 272.9 61, 272.9 171, 317.7 171" fill="none" stroke="#1e1e1c" stroke-width="1.8" marker-end="url(#arr)"/>
<path d="M 573 158.7 C 618 158.7, 618 120.7, 660 120.7" fill="none" stroke="#1e1e1c" stroke-width="1.8" marker-end="url(#arr)"/>
<path d="M 573 183.3 C 623.7 183.3, 623.7 227.8, 671.4 227.8" fill="none" stroke="#1e1e1c" stroke-width="1.8" marker-end="url(#arr)"/>
<path d="M 225.1 42.5 C 285.7 42.5, 602.4 88.3, 660 88.3" fill="none" stroke="#1e1e1c" stroke-width="1.8" marker-end="url(#arr)"/>
<path d="M 225.1 79.5 L 244.7 79.5 Q 256.7 79.5, 256.7 91.5 L 256.7 96 Q 256.7 108, 268.7 108 L 625 108 Q 637 108, 637 120 L 637 196.4 Q 637 208.4, 649 208.4 L 671.4 208.4" fill="none" stroke="#1e1e1c" stroke-width="1.8" marker-end="url(#arr)"/>
<path d="M 225.1 171 L 244.7 171 Q 256.7 171, 256.7 183 L 256.7 222 Q 256.7 234, 268.7 234 L 630.4 234 Q 637 234, 637 240.6 L 637 240.6 Q 637 247.2, 643.6 247.2 L 671.4 247.2" fill="none" stroke="#1e1e1c" stroke-width="1.8" marker-end="url(#arr)"/>
<path d="M 230.7 281 C 266.3 281, 638.9 266.6, 671.4 266.6" fill="none" stroke="#1e1e1c" stroke-width="1.8" marker-end="url(#arr)"/>
<path d="M 892.5 104.5 C 937.5 104.5, 937.5 154.8, 979.5 154.8" fill="none" stroke="#1e1e1c" stroke-width="1.8" marker-end="url(#arr)"/>
<path d="M 881.2 237.5 C 931.9 237.5, 931.9 187.2, 979.5 187.2" fill="none" stroke="#1e1e1c" stroke-width="1.8" marker-end="url(#arr)"/>
<rect x="29.7" y="24" width="195.4" height="74" rx="10" fill="#ffffff" stroke="#1e1e1c" stroke-width="1.5"/>
<text stroke="none" x="127.4" y="54.6" text-anchor="middle" font-family="Inter, Arial, sans-serif" font-size="17" font-weight="700" fill="#1e1e1c">Boundary point</text>
<text stroke="none" x="127.4" y="77.6" text-anchor="middle" font-family="Inter, Arial, sans-serif" font-size="14.5" fill="#44403a">x on interface</text>
<rect x="320.7" y="134" width="252.3" height="74" rx="10" fill="#e7f0ef" stroke="#1e1e1c" stroke-width="1.5"/>
<text stroke="none" x="446.9" y="164.6" text-anchor="middle" font-family="Inter, Arial, sans-serif" font-size="17" font-weight="700" fill="#1e1e1c">Nearby observations</text>
<text stroke="none" x="446.9" y="187.6" text-anchor="middle" font-family="Inter, Arial, sans-serif" font-size="14.5" fill="#44403a">around x</text>
<rect x="29.7" y="134" width="195.4" height="74" rx="10" fill="#ffffff" stroke="#1e1e1c" stroke-width="1.5"/>
<text stroke="none" x="127.4" y="164.6" text-anchor="middle" font-family="Inter, Arial, sans-serif" font-size="17" font-weight="700" fill="#1e1e1c">Treatment side</text>
<text stroke="none" x="127.4" y="187.6" text-anchor="middle" font-family="Inter, Arial, sans-serif" font-size="14.5" fill="#44403a">known side label</text>
<rect x="24" y="244" width="206.7" height="74" rx="10" fill="#ffffff" stroke="#1e1e1c" stroke-width="1.5"/>
<text stroke="none" x="127.4" y="274.6" text-anchor="middle" font-family="Inter, Arial, sans-serif" font-size="17" font-weight="700" fill="#1e1e1c">Border geometry</text>
<text stroke="none" x="127.4" y="297.6" text-anchor="middle" font-family="Inter, Arial, sans-serif" font-size="14.5" fill="#44403a">known interface</text>
<rect x="663" y="56" width="229.5" height="97" rx="10" fill="#f6efdb" stroke="#1e1e1c" stroke-width="1.5"/>
<text stroke="none" x="777.8" y="86.6" text-anchor="middle" font-family="Inter, Arial, sans-serif" font-size="17" font-weight="700" fill="#1e1e1c">Unsigned distance</text>
<text stroke="none" x="777.8" y="109.6" text-anchor="middle" font-family="Inter, Arial, sans-serif" font-size="14.5" fill="#44403a">how far from x</text>
<text stroke="none" x="777.8" y="132.6" text-anchor="middle" font-family="Inter, Arial, sans-serif" font-size="14.5" fill="#44403a">side forgotten</text>
<rect x="674.4" y="189" width="206.7" height="97" rx="10" fill="#f6efdb" stroke="#1e1e1c" stroke-width="1.5"/>
<text stroke="none" x="777.8" y="219.6" text-anchor="middle" font-family="Inter, Arial, sans-serif" font-size="17" font-weight="700" fill="#1e1e1c">Signed distance</text>
<text stroke="none" x="777.8" y="242.6" text-anchor="middle" font-family="Inter, Arial, sans-serif" font-size="14.5" fill="#44403a">sign by side</text>
<text stroke="none" x="777.8" y="265.6" text-anchor="middle" font-family="Inter, Arial, sans-serif" font-size="14.5" fill="#44403a">geometry used</text>
<rect x="982.5" y="122.5" width="251.8" height="97" rx="10" fill="#ffffff" stroke="#1e1e1c" stroke-width="1.5"/>
<text stroke="none" x="1108.4" y="153.1" text-anchor="middle" font-family="Inter, Arial, sans-serif" font-size="17" font-weight="700" fill="#1e1e1c">Supremum loss</text>
<text stroke="none" x="1108.4" y="176.1" text-anchor="middle" font-family="Inter, Arial, sans-serif" font-size="14.5" fill="#44403a">over boundary</text>
<text stroke="none" x="1108.4" y="199.1" text-anchor="middle" font-family="Inter, Arial, sans-serif" font-size="14.5" fill="#44403a">μ_P unsigned, τ_P signed</text>
</svg>
