<svg xmlns="http://www.w3.org/2000/svg" viewBox="0 0 1271 411" role="img">
<defs><marker id="arr" viewBox="0 0 10 10" refX="8.5" refY="5" markerWidth="7" markerHeight="7" orient="auto-start-reverse"><path d="M 0 0 L 10 5 L 0 10 z" fill="#1e1e1c"/></marker></defs>
<path d="M 293.7 181.3 C 341 181.3, 341 72.5, 385.2 72.5" fill="none" stroke="#1e1e1c" stroke-width="2" marker-end="url(#arr)"/>
<path d="M 613 72.5 C 660.3 72.5, 660.3 139, 704.5 139" fill="none" stroke="#1e1e1c" stroke-width="2" marker-end="url(#arr)"/>
<path d="M 293.7 205.5 C 338.7 205.5, 338.7 205.5, 380.7 205.5" fill="none" stroke="#1e1e1c" stroke-width="2" marker-end="url(#arr)"/>
<path d="M 293.7 229.8 C 352.2 229.8, 352.2 338.5, 407.7 338.5" fill="none" stroke="#1e1e1c" stroke-width="2" marker-end="url(#arr)"/>
<path d="M 617.5 205.5 C 687.2 205.5, 687.2 255.8, 754 255.8" fill="none" stroke="#1e1e1c" stroke-width="2" marker-end="url(#arr)"/>
<path d="M 590.6 338.5 C 673.8 338.5, 673.8 288.2, 754 288.2" fill="none" stroke="#1e1e1c" stroke-width="2" marker-end="url(#arr)"/>
<path d="M 968.3 139 C 1013.3 139, 1013.3 189.3, 1055.3 189.3" fill="none" stroke="#1e1e1c" stroke-width="2" marker-end="url(#arr)"/>
<path d="M 918.8 272 C 988.5 272, 988.5 221.7, 1055.3 221.7" fill="none" stroke="#1e1e1c" stroke-width="2" marker-end="url(#arr)"/>
<rect x="24" y="157" width="269.7" height="97" rx="8" fill="#ffffff" stroke="#1e1e1c" stroke-width="2"/>
<text stroke="none" x="158.9" y="187.6" text-anchor="middle" font-family="Inter, Arial, sans-serif" font-size="17" font-weight="700" fill="#1e1e1c">Boundary cells</text>
<text stroke="none" x="158.9" y="210.6" text-anchor="middle" font-family="Inter, Arial, sans-serif" font-size="14.5" fill="#44403a">separated support boundary</text>
<text stroke="none" x="158.9" y="233.6" text-anchor="middle" font-family="Inter, Arial, sans-serif" font-size="14.5" fill="#44403a">changes order aₙ</text>
<rect x="388.2" y="24" width="224.8" height="97" rx="8" fill="#e7f0ef" stroke="#1e1e1c" stroke-width="2"/>
<text stroke="none" x="500.6" y="54.6" text-anchor="middle" font-family="Inter, Arial, sans-serif" font-size="17" font-weight="700" fill="#1e1e1c">Hidden bits</text>
<text stroke="none" x="500.6" y="77.6" text-anchor="middle" font-family="Inter, Arial, sans-serif" font-size="14.5" fill="#44403a">binary perturbations</text>
<text stroke="none" x="500.6" y="100.6" text-anchor="middle" font-family="Inter, Arial, sans-serif" font-size="14.5" fill="#44403a">local boundary values</text>
<rect x="707.5" y="90.5" width="260.8" height="97" rx="8" fill="#f6efdb" stroke="#1e1e1c" stroke-width="2"/>
<text stroke="none" x="837.9" y="121.1" text-anchor="middle" font-family="Inter, Arial, sans-serif" font-size="17" font-weight="700" fill="#1e1e1c">Distance obs</text>
<text stroke="none" x="837.9" y="144.1" text-anchor="middle" font-family="Inter, Arial, sans-serif" font-size="14.5" fill="#44403a">unsigned scalar distances</text>
<text stroke="none" x="837.9" y="167.1" text-anchor="middle" font-family="Inter, Arial, sans-serif" font-size="14.5" fill="#44403a">reveal little</text>
<rect x="383.7" y="157" width="233.8" height="97" rx="8" fill="#e7f0ef" stroke="#1e1e1c" stroke-width="2"/>
<text stroke="none" x="500.6" y="187.6" text-anchor="middle" font-family="Inter, Arial, sans-serif" font-size="17" font-weight="700" fill="#1e1e1c">Sup-loss</text>
<text stroke="none" x="500.6" y="210.6" text-anchor="middle" font-family="Inter, Arial, sans-serif" font-size="14.5" fill="#44403a">uniform over cells</text>
<text stroke="none" x="500.6" y="233.6" text-anchor="middle" font-family="Inter, Arial, sans-serif" font-size="14.5" fill="#44403a">logarithm contribution</text>
<rect x="410.7" y="290" width="179.8" height="97" rx="8" fill="#e7f0ef" stroke="#1e1e1c" stroke-width="2"/>
<text stroke="none" x="500.6" y="320.6" text-anchor="middle" font-family="Inter, Arial, sans-serif" font-size="17" font-weight="700" fill="#1e1e1c">Scale calc</text>
<text stroke="none" x="500.6" y="343.6" text-anchor="middle" font-family="Inter, Arial, sans-serif" font-size="14.5" fill="#44403a">M≍Δ⁻¹/q, w²≍Δ²/q</text>
<text stroke="none" x="500.6" y="366.6" text-anchor="middle" font-family="Inter, Arial, sans-serif" font-size="14.5" fill="#44403a">information nΔ⁴</text>
<rect x="757" y="223.5" width="161.9" height="97" rx="8" fill="#f6efdb" stroke="#1e1e1c" stroke-width="2"/>
<text stroke="none" x="837.9" y="254.1" text-anchor="middle" font-family="Inter, Arial, sans-serif" font-size="17" font-weight="700" fill="#1e1e1c">Balancing</text>
<text stroke="none" x="837.9" y="277.1" text-anchor="middle" font-family="Inter, Arial, sans-serif" font-size="14.5" fill="#44403a">nΔ⁴≍log M</text>
<text stroke="none" x="837.9" y="300.1" text-anchor="middle" font-family="Inter, Arial, sans-serif" font-size="14.5" fill="#44403a">Δ≍(log n/n)¹/4</text>
<rect x="1058.3" y="157" width="188.8" height="97" rx="8" fill="#ffffff" stroke="#1e1e1c" stroke-width="2"/>
<text stroke="none" x="1152.7" y="187.6" text-anchor="middle" font-family="Inter, Arial, sans-serif" font-size="17" font-weight="700" fill="#1e1e1c">Decoding</text>
<text stroke="none" x="1152.7" y="210.6" text-anchor="middle" font-family="Inter, Arial, sans-serif" font-size="14.5" fill="#44403a">difficulty</text>
<text stroke="none" x="1152.7" y="233.6" text-anchor="middle" font-family="Inter, Arial, sans-serif" font-size="14.5" fill="#44403a">lower-bound scale</text>
</svg>
