<svg xmlns="http://www.w3.org/2000/svg" viewBox="0 0 1746 302" role="img">
<defs><marker id="arr" viewBox="0 0 10 10" refX="8.5" refY="5" markerWidth="7" markerHeight="7" orient="auto-start-reverse"><path d="M 0 0 L 10 5 L 0 10 z" fill="#1e1e1c"/></marker></defs>
<path d="M 264.9 72.5 C 288.9 72.5, 334.8 72.5, 355.8 72.5" fill="none" stroke="#1e1e1c" stroke-width="1.8" marker-end="url(#arr)"/>
<path d="M 656.7 72.5 C 703.6 72.5, 703.6 139, 747.6 139" fill="none" stroke="#1e1e1c" stroke-width="1.8" marker-end="url(#arr)"/>
<path d="M 1002.4 139 C 1039.3 139, 1055.4 122.8, 1089.4 122.8" fill="none" stroke="#1e1e1c" stroke-width="1.8" marker-end="url(#arr)"/>
<path d="M 225.4 205.5 C 258.6 205.5, 321.7 194, 351.9 194" fill="none" stroke="#1e1e1c" stroke-width="1.8" marker-end="url(#arr)"/>
<path d="M 660.6 194 C 720.6 194, 766.5 220, 876.5 220 C 986.5 220, 1032.4 155.2, 1089.4 155.2" fill="none" stroke="#1e1e1c" stroke-width="1.8" marker-end="url(#arr)"/>
<path d="M 1380.1 139 C 1404.1 139, 1446.1 139, 1467.1 139" fill="none" stroke="#1e1e1c" stroke-width="1.8" marker-end="url(#arr)"/>
<rect x="24" y="24" width="240.9" height="97" rx="10" fill="#ffffff" stroke="#1e1e1c" stroke-width="1.5"/>
<text stroke="none" x="144.4" y="54.6" text-anchor="middle" font-family="Inter, Arial, sans-serif" font-size="17" font-weight="700" fill="#1e1e1c">Balanced sign laws</text>
<text stroke="none" x="144.4" y="77.6" text-anchor="middle" font-family="Inter, Arial, sans-serif" font-size="14.5" fill="#44403a">on {-1,1}^n</text>
<text stroke="none" x="144.4" y="100.6" text-anchor="middle" font-family="Inter, Arial, sans-serif" font-size="14.5" fill="#44403a">P(Z=z)=P(Z=-z)</text>
<rect x="358.8" y="35.5" width="297.8" height="74" rx="10" fill="#e7f0ef" stroke="#1e1e1c" stroke-width="1.5"/>
<text stroke="none" x="507.7" y="66.1" text-anchor="middle" font-family="Inter, Arial, sans-serif" font-size="17" font-weight="700" fill="#1e1e1c">Block-exchangeable laws</text>
<text stroke="none" x="507.7" y="89.1" text-anchor="middle" font-family="Inter, Arial, sans-serif" font-size="14.5" fill="#44403a">symmetry reduction</text>
<rect x="750.6" y="102" width="251.8" height="74" rx="10" fill="#f6efdb" stroke="#1e1e1c" stroke-width="1.5"/>
<text stroke="none" x="876.5" y="132.6" text-anchor="middle" font-family="Inter, Arial, sans-serif" font-size="17" font-weight="700" fill="#1e1e1c">X(P)</text>
<text stroke="none" x="876.5" y="155.6" text-anchor="middle" font-family="Inter, Arial, sans-serif" font-size="14.5" fill="#44403a">implementable covariance</text>
<rect x="63.5" y="157" width="161.9" height="97" rx="10" fill="#ffffff" stroke="#1e1e1c" stroke-width="1.5"/>
<text stroke="none" x="144.4" y="187.6" text-anchor="middle" font-family="Inter, Arial, sans-serif" font-size="17" font-weight="700" fill="#1e1e1c">Parameters</text>
<text stroke="none" x="144.4" y="210.6" text-anchor="middle" font-family="Inter, Arial, sans-serif" font-size="14.5" fill="#44403a">u within block</text>
<text stroke="none" x="144.4" y="233.6" text-anchor="middle" font-family="Inter, Arial, sans-serif" font-size="14.5" fill="#44403a">v across block</text>
<rect x="354.9" y="145.5" width="305.7" height="97" rx="10" fill="#e7f0ef" stroke="#1e1e1c" stroke-width="1.5"/>
<text stroke="none" x="507.7" y="176.1" text-anchor="middle" font-family="Inter, Arial, sans-serif" font-size="17" font-weight="700" fill="#1e1e1c">Block elliptope</text>
<text stroke="none" x="507.7" y="199.1" text-anchor="middle" font-family="Inter, Arial, sans-serif" font-size="14.5" fill="#44403a">block-symmetric X(u,v)</text>
<text stroke="none" x="507.7" y="222.1" text-anchor="middle" font-family="Inter, Arial, sans-serif" font-size="14.5" fill="#44403a">contains the implementable set</text>
<rect x="1092.4" y="90.5" width="287.7" height="97" rx="10" fill="#ffffff" stroke="#1e1e1c" stroke-width="1.5"/>
<text stroke="none" x="1236.2" y="121.1" text-anchor="middle" font-family="Inter, Arial, sans-serif" font-size="17" font-weight="700" fill="#1e1e1c">Design objective</text>
<text stroke="none" x="1236.2" y="144.1" text-anchor="middle" font-family="Inter, Arial, sans-serif" font-size="14.5" fill="#44403a">disagreement + pseudoinverse</text>
<text stroke="none" x="1236.2" y="167.1" text-anchor="middle" font-family="Inter, Arial, sans-serif" font-size="14.5" fill="#44403a">Frobenius + balance</text>
<rect x="1470.1" y="90.5" width="251.8" height="97" rx="10" fill="#e7f0ef" stroke="#1e1e1c" stroke-width="1.5"/>
<text stroke="none" x="1596" y="121.1" text-anchor="middle" font-family="Inter, Arial, sans-serif" font-size="17" font-weight="700" fill="#1e1e1c">Δₘ± loss</text>
<text stroke="none" x="1596" y="144.1" text-anchor="middle" font-family="Inter, Arial, sans-serif" font-size="14.5" fill="#44403a">objective gap</text>
<text stroke="none" x="1596" y="167.1" text-anchor="middle" font-family="Inter, Arial, sans-serif" font-size="14.5" fill="#44403a">relaxed to implementable</text>
</svg>
