<svg xmlns="http://www.w3.org/2000/svg" viewBox="0 0 1749 270" role="img">
<defs><marker id="arr" viewBox="0 0 10 10" refX="8.5" refY="5" markerWidth="7" markerHeight="7" orient="auto-start-reverse"><path d="M 0 0 L 10 5 L 0 10 z" fill="#1e1e1c"/></marker></defs>
<path d="M 219.4 48.7 C 270.1 48.7, 270.1 116, 317.7 116" fill="none" stroke="#1e1e1c" stroke-width="1.8" marker-end="url(#arr)"/>
<path d="M 219.4 73.3 L 246.6 73.3 Q 256.7 73.3, 256.7 63.2 L 256.7 63.2 Q 256.7 53, 266.9 53 L 545.3 53 Q 557.3 53, 557.3 65 L 557.3 146.7 Q 557.3 158.7, 569.3 158.7 L 584.8 158.7" fill="none" stroke="#1e1e1c" stroke-width="1.8" marker-end="url(#arr)"/>
<path d="M 493.3 103.7 C 538.3 103.7, 538.3 61, 580.3 61" fill="none" stroke="#1e1e1c" stroke-width="1.8" marker-end="url(#arr)"/>
<path d="M 493.3 128.3 C 540.6 128.3, 540.6 183.3, 584.8 183.3" fill="none" stroke="#1e1e1c" stroke-width="1.8" marker-end="url(#arr)"/>
<path d="M 817.1 48.7 C 862.1 48.7, 862.1 99.8, 904.1 99.8" fill="none" stroke="#1e1e1c" stroke-width="1.8" marker-end="url(#arr)"/>
<path d="M 230.7 171 L 244.7 171 Q 256.7 171, 256.7 183 L 256.7 222 Q 256.7 234, 268.7 234 L 869.1 234 Q 881.1 234, 881.1 222 L 881.1 143.7 Q 881.1 132.2, 892.6 132.2 L 904.1 132.2" fill="none" stroke="#1e1e1c" stroke-width="1.8" marker-end="url(#arr)"/>
<path d="M 817.1 73.3 L 831.1 73.3 Q 843.1 73.3, 843.1 61.3 L 843.1 53.5 Q 843.1 41.5, 855.1 41.5 L 1156.9 41.5 Q 1168.9 41.5, 1168.9 53.5 L 1168.9 80.3 Q 1168.9 91.8, 1180.4 91.8 L 1191.9 91.8" fill="none" stroke="#1e1e1c" stroke-width="1.8" marker-end="url(#arr)"/>
<path d="M 812.6 171 L 833.4 171 Q 843.1 171, 843.1 180.8 L 843.1 180.8 Q 843.1 190.5, 852.9 190.5 L 1156.9 190.5 Q 1168.9 190.5, 1168.9 178.5 L 1168.9 151.8 Q 1168.9 140.3, 1180.4 140.3 L 1191.9 140.3" fill="none" stroke="#1e1e1c" stroke-width="1.8" marker-end="url(#arr)"/>
<path d="M 1104.9 116 C 1128.9 116, 1170.9 116, 1191.9 116" fill="none" stroke="#1e1e1c" stroke-width="1.8" marker-end="url(#arr)"/>
<path d="M 1401.7 116 C 1425.7 116, 1467.7 116, 1488.7 116" fill="none" stroke="#1e1e1c" stroke-width="1.8" marker-end="url(#arr)"/>
<rect x="35.4" y="24" width="184" height="74" rx="10" fill="#ffffff" stroke="#1e1e1c" stroke-width="1.5"/>
<text stroke="none" x="127.4" y="54.6" text-anchor="middle" font-family="Inter, Arial, sans-serif" font-size="17" font-weight="700" fill="#1e1e1c">Code and data</text>
<text stroke="none" x="127.4" y="77.6" text-anchor="middle" font-family="Inter, Arial, sans-serif" font-size="14.5" fill="#44403a">supplied inputs</text>
<rect x="320.7" y="79" width="172.6" height="74" rx="10" fill="#e7f0ef" stroke="#1e1e1c" stroke-width="1.5"/>
<text stroke="none" x="407" y="109.6" text-anchor="middle" font-family="Inter, Arial, sans-serif" font-size="17" font-weight="700" fill="#1e1e1c">Residual Z_n</text>
<text stroke="none" x="407" y="132.6" text-anchor="middle" font-family="Inter, Arial, sans-serif" font-size="14.5" fill="#44403a">treatment code</text>
<rect x="583.3" y="24" width="233.8" height="74" rx="10" fill="#f6efdb" stroke="#1e1e1c" stroke-width="1.5"/>
<text stroke="none" x="700.2" y="54.6" text-anchor="middle" font-family="Inter, Arial, sans-serif" font-size="17" font-weight="700" fill="#1e1e1c">F_n transform</text>
<text stroke="none" x="700.2" y="77.6" text-anchor="middle" font-family="Inter, Arial, sans-serif" font-size="14.5" fill="#44403a">carries zero locations</text>
<rect x="587.8" y="134" width="224.8" height="74" rx="10" fill="#f6efdb" stroke="#1e1e1c" stroke-width="1.5"/>
<text stroke="none" x="700.2" y="164.6" text-anchor="middle" font-family="Inter, Arial, sans-serif" font-size="17" font-weight="700" fill="#1e1e1c">G_n transform</text>
<text stroke="none" x="700.2" y="187.6" text-anchor="middle" font-family="Inter, Arial, sans-serif" font-size="14.5" fill="#44403a">numerator information</text>
<rect x="24" y="134" width="206.7" height="74" rx="10" fill="#ffffff" stroke="#1e1e1c" stroke-width="1.5"/>
<text stroke="none" x="127.4" y="164.6" text-anchor="middle" font-family="Inter, Arial, sans-serif" font-size="17" font-weight="700" fill="#1e1e1c">Nuisance factor</text>
<text stroke="none" x="127.4" y="187.6" text-anchor="middle" font-family="Inter, Arial, sans-serif" font-size="14.5" fill="#44403a">zero-free inside</text>
<rect x="907.1" y="67.5" width="197.8" height="97" rx="10" fill="#ffffff" stroke="#1e1e1c" stroke-width="1.5"/>
<text stroke="none" x="1006" y="98.1" text-anchor="middle" font-family="Inter, Arial, sans-serif" font-size="17" font-weight="700" fill="#1e1e1c">Contour C_j</text>
<text stroke="none" x="1006" y="121.1" text-anchor="middle" font-family="Inter, Arial, sans-serif" font-size="14.5" fill="#44403a">zero-free boundary</text>
<text stroke="none" x="1006" y="144.1" text-anchor="middle" font-family="Inter, Arial, sans-serif" font-size="14.5" fill="#44403a">enclosed zeros</text>
<rect x="1194.9" y="67.5" width="206.7" height="97" rx="10" fill="#e7f0ef" stroke="#1e1e1c" stroke-width="1.5"/>
<text stroke="none" x="1298.3" y="98.1" text-anchor="middle" font-family="Inter, Arial, sans-serif" font-size="17" font-weight="700" fill="#1e1e1c">Contour average</text>
<text stroke="none" x="1298.3" y="121.1" text-anchor="middle" font-family="Inter, Arial, sans-serif" font-size="14.5" fill="#44403a">counts zeros</text>
<text stroke="none" x="1298.3" y="144.1" text-anchor="middle" font-family="Inter, Arial, sans-serif" font-size="14.5" fill="#44403a">averages G_n/F_n</text>
<rect x="1491.7" y="79" width="233.8" height="74" rx="10" fill="#f6efdb" stroke="#1e1e1c" stroke-width="1.5"/>
<text stroke="none" x="1608.6" y="109.6" text-anchor="middle" font-family="Inter, Arial, sans-serif" font-size="17" font-weight="700" fill="#1e1e1c">Estimate θ₀</text>
<text stroke="none" x="1608.6" y="132.6" text-anchor="middle" font-family="Inter, Arial, sans-serif" font-size="14.5" fill="#44403a">identified coefficient</text>
</svg>
