<svg xmlns="http://www.w3.org/2000/svg" viewBox="0 0 1195 445" role="img">
<defs><marker id="arr" viewBox="0 0 10 10" refX="8.5" refY="5" markerWidth="7" markerHeight="7" orient="auto-start-reverse"><path d="M 0 0 L 10 5 L 0 10 z" fill="#1e1e1c"/></marker></defs>
<path d="M 204.7 122.8 C 253.8 122.8, 253.8 189.3, 299.8 189.3" fill="none" stroke="#1e1e1c" stroke-width="2" marker-end="url(#arr)"/>
<path d="M 212.8 272 C 257.8 272, 257.8 221.7, 299.8 221.7" fill="none" stroke="#1e1e1c" stroke-width="2" marker-end="url(#arr)"/>
<path d="M 532.3 181.3 C 591.6 181.3, 591.6 72.5, 647.8 72.5" fill="none" stroke="#1e1e1c" stroke-width="2" marker-end="url(#arr)"/>
<path d="M 204.7 155.2 C 254.7 155.2, 293.5 421, 413.5 421 C 533.5 421, 572.3 189.3, 619.3 189.3" fill="none" stroke="#1e1e1c" stroke-width="2" marker-end="url(#arr)"/>
<path d="M 532.3 205.5 C 577.3 205.5, 577.3 221.7, 619.3 221.7" fill="none" stroke="#1e1e1c" stroke-width="2" marker-end="url(#arr)"/>
<path d="M 532.3 229.8 C 588.7 229.8, 588.7 338.5, 642.1 338.5" fill="none" stroke="#1e1e1c" stroke-width="2" marker-end="url(#arr)"/>
<path d="M 874.6 189.3 C 931 189.3, 931 138.2, 984.4 138.2" fill="none" stroke="#1e1e1c" stroke-width="2" marker-end="url(#arr)"/>
<path d="M 851.9 338.5 C 919.6 338.5, 919.6 162.8, 984.4 162.8" fill="none" stroke="#1e1e1c" stroke-width="2" marker-end="url(#arr)"/>
<path d="M 874.6 221.7 C 919.6 221.7, 919.6 260.5, 961.6 260.5" fill="none" stroke="#1e1e1c" stroke-width="2" marker-end="url(#arr)"/>
<rect x="32.1" y="90.5" width="172.6" height="97" rx="8" fill="#ffffff" stroke="#1e1e1c" stroke-width="2"/>
<text stroke="none" x="118.4" y="121.1" text-anchor="middle" font-family="Inter, Arial, sans-serif" font-size="17" font-weight="700" fill="#1e1e1c">Source cells</text>
<text stroke="none" x="118.4" y="144.1" text-anchor="middle" font-family="Inter, Arial, sans-serif" font-size="14.5" fill="#44403a">covariates X</text>
<text stroke="none" x="118.4" y="167.1" text-anchor="middle" font-family="Inter, Arial, sans-serif" font-size="14.5" fill="#44403a">Z,D,Y observed</text>
<rect x="24" y="223.5" width="188.8" height="97" rx="8" fill="#ffffff" stroke="#1e1e1c" stroke-width="2"/>
<text stroke="none" x="118.4" y="254.1" text-anchor="middle" font-family="Inter, Arial, sans-serif" font-size="17" font-weight="700" fill="#1e1e1c">Target cells</text>
<text stroke="none" x="118.4" y="277.1" text-anchor="middle" font-family="Inter, Arial, sans-serif" font-size="14.5" fill="#44403a">covariates X</text>
<text stroke="none" x="118.4" y="300.1" text-anchor="middle" font-family="Inter, Arial, sans-serif" font-size="14.5" fill="#44403a">target population</text>
<rect x="302.8" y="157" width="229.5" height="97" rx="8" fill="#e7f0ef" stroke="#1e1e1c" stroke-width="2"/>
<text stroke="none" x="417.6" y="187.6" text-anchor="middle" font-family="Inter, Arial, sans-serif" font-size="17" font-weight="700" fill="#1e1e1c">Transport weights</text>
<text stroke="none" x="417.6" y="210.6" text-anchor="middle" font-family="Inter, Arial, sans-serif" font-size="14.5" fill="#44403a">target-to-source</text>
<text stroke="none" x="417.6" y="233.6" text-anchor="middle" font-family="Inter, Arial, sans-serif" font-size="14.5" fill="#44403a">uneven reweighting</text>
<rect x="650.8" y="24" width="195.4" height="97" rx="8" fill="#f6efdb" stroke="#1e1e1c" stroke-width="2"/>
<text stroke="none" x="748.5" y="54.6" text-anchor="middle" font-family="Inter, Arial, sans-serif" font-size="17" font-weight="700" fill="#1e1e1c">Weighted cells</text>
<text stroke="none" x="748.5" y="77.6" text-anchor="middle" font-family="Inter, Arial, sans-serif" font-size="14.5" fill="#44403a">few carry much</text>
<text stroke="none" x="748.5" y="100.6" text-anchor="middle" font-family="Inter, Arial, sans-serif" font-size="14.5" fill="#44403a">target population</text>
<rect x="622.3" y="157" width="252.3" height="97" rx="8" fill="#f6efdb" stroke="#1e1e1c" stroke-width="2"/>
<text stroke="none" x="748.5" y="187.6" text-anchor="middle" font-family="Inter, Arial, sans-serif" font-size="17" font-weight="700" fill="#1e1e1c">Transported moments</text>
<text stroke="none" x="748.5" y="210.6" text-anchor="middle" font-family="Inter, Arial, sans-serif" font-size="14.5" fill="#44403a">outcome contrast</text>
<text stroke="none" x="748.5" y="233.6" text-anchor="middle" font-family="Inter, Arial, sans-serif" font-size="14.5" fill="#44403a">μ_n first stage</text>
<rect x="645.1" y="290" width="206.7" height="97" rx="8" fill="#f6efdb" stroke="#1e1e1c" stroke-width="2"/>
<text stroke="none" x="748.5" y="320.6" text-anchor="middle" font-family="Inter, Arial, sans-serif" font-size="17" font-weight="700" fill="#1e1e1c">Kish dispersion</text>
<text stroke="none" x="748.5" y="343.6" text-anchor="middle" font-family="Inter, Arial, sans-serif" font-size="14.5" fill="#44403a">weight dispersion</text>
<text stroke="none" x="748.5" y="366.6" text-anchor="middle" font-family="Inter, Arial, sans-serif" font-size="14.5" fill="#44403a">κ_n</text>
<rect x="987.4" y="113.5" width="161.2" height="74" rx="8" fill="#ffffff" stroke="#1e1e1c" stroke-width="2"/>
<text stroke="none" x="1068" y="144.1" text-anchor="middle" font-family="Inter, Arial, sans-serif" font-size="17" font-weight="700" fill="#1e1e1c">IV strength</text>
<text stroke="none" x="1068" y="167.1" text-anchor="middle" font-family="Inter, Arial, sans-serif" font-size="14.5" fill="#44403a">t_n=nμ_n²/κ_n</text>
<rect x="964.6" y="223.5" width="206.8" height="74" rx="8" fill="#ffffff" stroke="#1e1e1c" stroke-width="2"/>
<text stroke="none" x="1068" y="254.1" text-anchor="middle" font-family="Inter, Arial, sans-serif" font-size="17" font-weight="700" fill="#1e1e1c">Target effect</text>
<text stroke="none" x="1068" y="277.1" text-anchor="middle" font-family="Inter, Arial, sans-serif" font-size="14.5" fill="#44403a">complier effect θ_T</text>
</svg>
